<svg width="847" height="819" viewBox="0 0 847 819" fill="none" xmlns="http://www.w3.org/2000/svg">
<path d="M212.814 718.263C139.81 719.787 216.332 851.253 0.503466 810.245L342.943 0.027247C487.4 48.6609 787.143 150.741 830.462 169.994C884.61 194.06 777.918 226.375 803.437 274.698C828.957 323.02 740.081 315.897 752.496 354.463C764.91 393.029 734.261 438.369 696.894 418.079C659.527 397.789 587.763 458.882 611.973 534.76C636.183 610.639 486.574 703.73 468.368 572.883C450.163 442.035 347.042 599.059 367.465 640.417C387.888 681.775 285.818 716.74 212.814 718.263Z" fill="#717171"/>
</svg>
