<svg width="846" height="819" viewBox="0 0 846 819" fill="none" xmlns="http://www.w3.org/2000/svg">
<path d="M212.311 718.233C139.307 719.757 215.828 851.223 -1.29461e-05 810.215L342.44 -0.00284336C486.896 48.6308 786.639 150.711 829.958 169.964C884.107 194.03 777.414 226.345 802.934 274.668C828.453 322.99 739.578 315.867 751.992 354.433C764.407 392.999 733.758 438.339 696.39 418.049C659.023 397.759 587.259 458.852 611.469 534.73C635.679 610.609 486.071 703.7 467.865 572.853C449.659 442.005 346.538 599.029 366.961 640.387C387.384 681.745 285.315 716.71 212.311 718.233Z" fill="#424242"/>
</svg>
