<svg width="847" height="819" viewBox="0 0 847 819" fill="none" xmlns="http://www.w3.org/2000/svg">
<path d="M212.983 718.276C139.979 719.799 216.501 851.266 0.672472 810.258L343.112 0.0398202C487.569 48.6735 787.312 150.754 830.631 170.006C884.779 194.072 778.087 226.388 803.606 274.71C829.126 323.032 740.25 315.91 752.665 354.476C765.079 393.041 734.43 438.382 697.063 418.091C659.696 397.801 587.932 458.895 612.142 534.773C636.352 610.651 486.743 703.743 468.537 572.895C450.332 442.047 347.211 599.072 367.634 640.43C388.057 681.787 285.987 716.753 212.983 718.276Z" fill="#ACACAC"/>
</svg>
