<svg width="846" height="819" viewBox="0 0 846 819" fill="none" xmlns="http://www.w3.org/2000/svg">
<path d="M212.469 718.687C139.465 720.21 215.987 851.677 0.158678 810.669L342.598 0.450831C487.055 49.0845 786.798 151.165 830.117 170.417C884.266 194.483 777.573 226.799 803.092 275.121C828.612 323.443 739.736 316.321 752.151 354.887C764.565 393.452 733.916 438.793 696.549 418.502C659.182 398.212 587.418 459.306 611.628 535.184C635.838 611.062 486.229 704.154 468.024 573.306C449.818 442.458 346.697 599.483 367.12 640.841C387.543 682.198 285.473 717.164 212.469 718.687Z" fill="#848484"/>
</svg>
